<?xml version="1.0" encoding="utf-8"?>
<svg viewBox="0 0 1440 452" fill="none" xmlns="http://www.w3.org/2000/svg">
  <path fill="#DADCE8" d="M252.738 138.833h-2.555v2.576h-1.775v-2.576h-2.555v-1.776h2.555v-2.558h1.775v2.558h2.555v1.776zm359.446 32.728h-2.573v2.576h-1.774v-2.576h-2.555v-1.776h2.555v-2.557h1.774v2.557h2.573v1.776zm347.738 48.154h-2.555v2.558h-1.775v-2.558h-2.572v-1.776h2.572v-2.576h1.775v2.576h2.555v1.776zm-850.066-40.016h-2.555v2.558h-1.774v-2.558h-2.573v-1.776h2.573v-2.576h1.774v2.576h2.555v1.776zM1192.41 95.47h-2.56v2.575h-1.77V95.47h-2.57v-1.776h2.57v-2.558h1.77v2.558h2.56v1.776zm29.3 258.81h-2.56v2.557h-1.77v-2.557h-2.58v-1.777h2.58v-2.575h1.77v2.575h2.56v1.777zm68.54-8.25h-1.97v1.957h-1.35v-1.957h-1.96v-1.36h1.96v-1.957h1.35v1.957h1.97v1.36zm-705.659 46.457a1.154 1.154 0 110 2.309 1.154 1.154 0 010-2.309zm-72.397-116.732a1.154 1.154 0 11-.001 2.307 1.154 1.154 0 01.001-2.307zm-299.665-41.77a1.154 1.154 0 11-.001 2.307 1.154 1.154 0 01.001-2.307zM182.665 104.02a1.154 1.154 0 110 2.309 1.154 1.154 0 010-2.309zm116.617 56.359a1.154 1.154 0 11-.001 2.307 1.154 1.154 0 01.001-2.307zm646.089-22.067a1.155 1.155 0 11-.001 2.31 1.155 1.155 0 01.001-2.31zM95.306 98.296a1.154 1.154 0 110 2.308 1.154 1.154 0 010-2.308zm805.26 127.423a1.154 1.154 0 110 2.309 1.154 1.154 0 010-2.309zM50.5 185.703a1.154 1.154 0 110 2.308 1.154 1.154 0 010-2.308zm813.3 165.38a1.154 1.154 0 11-.002 2.308 1.154 1.154 0 01.002-2.308zm214.28-192.077c.64 0 1.15.516 1.15 1.154a1.15 1.15 0 11-2.3 0c0-.638.51-1.154 1.15-1.154zm98.82 41.403c.64 0 1.15.517 1.15 1.154 0 .638-.51 1.154-1.15 1.154-.64 0-1.15-.516-1.15-1.154 0-.637.51-1.154 1.15-1.154zm-13.22-140.196c.64 0 1.15.517 1.15 1.154a1.149 1.149 0 11-2.3 0c0-.637.51-1.154 1.15-1.154zm137.31 206.91a1.155 1.155 0 010 2.308c-.64 0-1.16-.517-1.16-1.154 0-.638.52-1.154 1.16-1.154zm15.5 61.581c.64 0 1.16.516 1.16 1.154a1.156 1.156 0 01-2.31 0c0-.638.52-1.154 1.15-1.154zm-129.83-2.31c.64 0 1.15.517 1.15 1.155a1.15 1.15 0 11-2.3 0c0-.638.51-1.155 1.15-1.155zm235.09-35.062c.64 0 1.16.517 1.16 1.155a1.156 1.156 0 11-1.16-1.155zM1190.1 447.691c.64 0 1.15.517 1.15 1.154a1.15 1.15 0 11-2.3 0c0-.637.51-1.154 1.15-1.154z" transform="matrix(1, 0, 0, 1, 7.105427357601002e-15, 1.4210854715202004e-14)"/>
  <path fill="#FF5000" d="M17.46 145.877L0 115.984h34.761l-17.3 29.893zm-7.097-24.032l7.098 11.937 7.097-11.883-14.195-.054z" transform="matrix(1, 0, 0, 1, 7.105427357601002e-15, 1.4210854715202004e-14)"/>
  <path fill="#AEB1C2" d="M226.831 87.394l-24.612-24.369 33.591-8.88-8.979 33.25zM213.665 66.08l9.99 9.68 3.815-13.321-13.805 3.641z" transform="matrix(1, 0, 0, 1, 7.105427357601002e-15, 1.4210854715202004e-14)"/>
  <path fill="#DADCE8" d="M1068.54 202.709l-9.14-33.41 33.55 9.041-24.41 24.369zm-.73-25.08l3.82 13.375 9.95-9.609-13.77-3.766zm-686.153 58.285l-24.629-24.352 33.501-8.97-8.872 33.322zm-13.149-21.315l9.99 9.68 3.815-13.321-13.805 3.641z" transform="matrix(1, 0, 0, 1, 7.105427357601002e-15, 1.4210854715202004e-14)"/>
  <path fill="#A573F4" d="M852.33 412.812l3.788-31.945 25.682 19.44-29.47 12.505zm8.112-21.797l-1.392 12.845 11.935-4.803-10.543-8.042z" transform="matrix(1, 0, 0, 1, 7.105427357601002e-15, 1.4210854715202004e-14)"/>
  <path fill="#FF7654" d="M1132.35 275.628l2.47-20.833 16.75 12.678-19.22 8.155zm5.29-14.215l-.9 8.377 7.78-3.132-6.88-5.245zM538.107 419.986l2.47-20.833 16.749 12.678-19.219 8.155zm5.291-14.215l-.908 8.377 7.783-3.132-6.875-5.245z" transform="matrix(1, 0, 0, 1, 7.105427357601002e-15, 1.4210854715202004e-14)"/>
  <path fill="#A573F4" d="M230.623 368.596l3.13-26.389 21.215 16.059-24.345 10.33zm6.702-18.006l-1.15 10.611 9.859-3.968-8.709-6.643z" transform="matrix(1, 0, 0, 1, 7.105427357601002e-15, 1.4210854715202004e-14)"/>
  <path fill="#DADCE8" d="M798.873 0a1.153 1.153 0 110 2.307 1.153 1.153 0 010-2.307z" transform="matrix(1, 0, 0, 1, 7.105427357601002e-15, 1.4210854715202004e-14)"/>
  <path fill="#E7EBEE" d="M109.039 314.354a39.746 39.746 0 0022.094-6.709 39.805 39.805 0 0014.646-17.867 39.863 39.863 0 002.261-23.002 39.84 39.84 0 00-10.888-20.38 39.732 39.732 0 00-43.343-8.616 39.753 39.753 0 00-17.842 14.668 39.836 39.836 0 00-6.693 22.119 39.862 39.862 0 0011.663 28.124 39.784 39.784 0 0028.102 11.663zm0 2.042a41.772 41.772 0 01-23.228-7.053 41.836 41.836 0 01-15.396-18.783 41.869 41.869 0 019.07-45.608 41.81 41.81 0 0121.409-11.449 41.791 41.791 0 0142.914 17.81 41.87 41.87 0 017.037 23.254 41.854 41.854 0 01-12.245 29.584 41.776 41.776 0 01-29.561 12.245z" transform="matrix(1, 0, 0, 1, 7.105427357601002e-15, 1.4210854715202004e-14)"/>
  <path fill="#DADCE8" d="M1354.17 313.04h2.55v-2.574h1.78v2.574h2.55v1.776h-2.55v2.556h-1.78v-2.556h-2.55v-1.776zm-359.422-32.715h2.572v-2.575h1.775v2.575h2.555v1.775h-2.555v2.557h-1.775V282.1h-2.572v-1.775zm-347.711-48.134h2.555v-2.557h1.774v2.557h2.573v1.775h-2.573v2.575h-1.774v-2.575h-2.555v-1.775zM414.568 356.386h2.555v-2.574h1.775v2.574h2.572v1.776h-2.572v2.557h-1.775v-2.557h-2.555v-1.776zM385.274 97.68h2.555v-2.557h1.774v2.557h2.573v1.775h-2.573v2.575h-1.774v-2.575h-2.555V97.68zm-68.542 8.246h1.969v-1.956h1.358v1.956h1.955v1.359h-1.955v1.957h-1.358v-1.957h-1.969v-1.359zm705.608-46.437a1.15 1.15 0 01-1.15-1.154 1.149 1.149 0 112.3 0 1.15 1.15 0 01-1.15 1.154zm72.39 116.685a1.15 1.15 0 01-1.15-1.154c0-.638.51-1.154 1.15-1.154.64 0 1.15.516 1.15 1.154a1.15 1.15 0 01-1.15 1.154zm299.64 41.753a1.155 1.155 0 010-2.308c.64 0 1.16.517 1.16 1.154 0 .638-.52 1.154-1.16 1.154zm29.86 129.913a1.155 1.155 0 010-2.308c.64 0 1.16.517 1.16 1.154 0 .638-.52 1.154-1.16 1.154zm-762.644-34.278a1.154 1.154 0 11.001-2.307 1.154 1.154 0 01-.001 2.307zm44.802-87.372a1.154 1.154 0 11.001-2.307 1.154 1.154 0 01-.001 2.307zm36.764-125.314a1.154 1.154 0 11.001-2.309 1.154 1.154 0 01-.001 2.309zM528.887 292.877a1.154 1.154 0 11.002-2.308 1.154 1.154 0 01-.002 2.308zm-98.812-41.387a1.154 1.154 0 11.001-2.307 1.154 1.154 0 01-.001 2.307zm13.22 140.14a1.153 1.153 0 110-2.306 1.153 1.153 0 010 2.306zM305.999 184.803a1.153 1.153 0 110-2.306 1.153 1.153 0 010 2.306zm-15.507-61.556a1.154 1.154 0 110-2.309 1.154 1.154 0 010 2.309zm129.825 2.308a1.154 1.154 0 11.001-2.307 1.154 1.154 0 01-.001 2.307zM185.24 160.603a1.154 1.154 0 11.001-2.307 1.154 1.154 0 01-.001 2.307zM118.153 33.052a1.153 1.153 0 110-2.307 1.153 1.153 0 010 2.307z" transform="matrix(1, 0, 0, 1, 7.105427357601002e-15, 1.4210854715202004e-14)"/>
  <path fill="#AEB1C2" d="M1380.07 364.458l24.61 24.36-33.59 8.878 8.98-33.238zm13.17 21.306l-9.99-9.676-3.82 13.316 13.81-3.64z" transform="matrix(1, 0, 0, 1, 7.105427357601002e-15, 1.4210854715202004e-14)"/>
  <path fill="#A573F4" d="M754.621 39.17l-3.788 31.933-25.68-19.432 29.468-12.5zm-8.112 21.789l1.392-12.84-11.934 4.801 10.542 8.039z" transform="matrix(1, 0, 0, 1, 7.105427357601002e-15, 1.4210854715202004e-14)"/>
  <path fill="#FF7654" d="M1068.82 32l-2.47 20.825-16.75-12.673 19.22-8.153zm-5.29 14.21l.91-8.375-7.79 3.131 6.88 5.243z" transform="matrix(1, 0, 0, 1, 7.105427357601002e-15, 1.4210854715202004e-14)"/>
  <path fill="#A573F4" d="M1376.28 83.37l-3.13 26.378-21.21-16.052 24.34-10.327zm-6.7 17.998l1.15-10.607-9.86 3.967 8.71 6.64z" transform="matrix(1, 0, 0, 1, 7.105427357601002e-15, 1.4210854715202004e-14)"/>
  <path fill="#DADCE8" d="M808.073 451.819a1.154 1.154 0 11.001-2.307 1.154 1.154 0 01-.001 2.307z" transform="matrix(1, 0, 0, 1, 7.105427357601002e-15, 1.4210854715202004e-14)"/>
  <path fill="#1652F0" d="M837.797 314.888l.142.053-2.378 5.877 2.236-5.93z" transform="matrix(1, 0, 0, 1, 7.105427357601002e-15, 1.4210854715202004e-14)"/>
</svg>