<svg xmlns="http://www.w3.org/2000/svg" version="1.1" xmlns:xlink="http://www.w3.org/1999/xlink" xmlns:svgjs="http://svgjs.dev/svgjs" width="1440" height="560" preserveAspectRatio="none" viewBox="0 0 1440 560"><g mask="url(&quot;#SvgjsMask1089&quot;)" fill="none"><path d="M115.603,527.928C149.151,528.242,182.931,514.802,199.422,485.586C215.682,456.779,207.01,422.588,191.578,393.329C174.732,361.389,151.703,327.506,115.603,326.667C78.575,325.807,50.231,356.731,33.258,389.651C17.803,419.626,17.207,455.064,34.463,484.04C51.326,512.356,82.647,527.619,115.603,527.928" fill="rgba(83, 28, 142, 0.4)" class="triangle-float3"></path><path d="M892.451,466.337C945.665,465.726,999.449,447.399,1026.628,401.645C1054.322,355.025,1047.866,297.062,1020.978,249.973C993.844,202.453,947.171,166.373,892.451,166.662C838.161,166.949,793.715,204.484,766.254,251.318C738.414,298.798,724.966,357.323,752.826,404.791C780.42,451.806,837.94,466.963,892.451,466.337" fill="rgba(83, 28, 142, 0.4)" class="triangle-float1"></path><path d="M1385.344,534.671C1436.482,533.015,1466.371,483.792,1492.765,439.96C1520.454,393.977,1554.093,342.386,1530.022,294.41C1504.372,243.286,1442.365,221.361,1385.344,225.856C1335.056,229.82,1299.489,270.144,1275.429,314.481C1252.724,356.321,1243.898,404.737,1265.159,447.329C1288.865,494.82,1332.293,536.389,1385.344,534.671" fill="rgba(83, 28, 142, 0.4)" class="triangle-float3"></path><path d="M427.712,238.27C452.339,237.427,472.195,220.307,484.305,198.847C496.178,177.808,500.14,152.251,488.059,131.331C475.98,110.414,451.861,101.358,427.712,100.85C402.484,100.32,376.164,107.291,362.804,128.698C348.754,151.211,350.457,180.135,363.982,202.967C377.248,225.361,401.699,239.161,427.712,238.27" fill="rgba(83, 28, 142, 0.4)" class="triangle-float2"></path><path d="M634.947,321.673C676.215,323.114,718.106,307.737,739.512,272.426C761.628,235.943,759.929,189.122,737.177,153.032C715.781,119.093,675.048,105.317,634.947,106.563C597.187,107.736,562.178,126.42,543.158,159.061C524.005,191.93,523.609,232.41,542.309,265.539C561.331,299.239,596.273,320.322,634.947,321.673" fill="rgba(83, 28, 142, 0.4)" class="triangle-float1"></path></g><defs><mask id="SvgjsMask1089"><rect width="1440" height="560" fill="#ffffff"></rect></mask><style>
                @keyframes float1 {
                    0%{transform: translate(0, 0)}
                    50%{transform: translate(-10px, 0)}
                    100%{transform: translate(0, 0)}
                }

                .triangle-float1 {
                    animation: float1 5s infinite;
                }

                @keyframes float2 {
                    0%{transform: translate(0, 0)}
                    50%{transform: translate(-5px, -5px)}
                    100%{transform: translate(0, 0)}
                }

                .triangle-float2 {
                    animation: float2 4s infinite;
                }

                @keyframes float3 {
                    0%{transform: translate(0, 0)}
                    50%{transform: translate(0, -10px)}
                    100%{transform: translate(0, 0)}
                }

                .triangle-float3 {
                    animation: float3 6s infinite;
                }
            </style></defs></svg>